<?xml version="1.0" encoding="utf-8"?>
<!-- Generator: Adobe Illustrator 25.2.0, SVG Export Plug-In . SVG Version: 6.00 Build 0)  -->
<svg version="1.1" id="Layer_1" xmlns="http://www.w3.org/2000/svg" xmlns:xlink="http://www.w3.org/1999/xlink" x="0px" y="0px"
	 viewBox="0 0 100 100" style="enable-background:new 0 0 100 100;" xml:space="preserve">
<style type="text/css">
	.st0{fill:#000;}
</style>
<g>
	<g>
		<path class="st0" d="M75.9,46.8l-11.2-8.6v-9c0-1.1-0.9-2-2-2c-1.1,0-2,0.9-2,2v5.9L51,27.7c-0.7-0.6-1.7-0.6-2.4,0L23.7,46.8
			c-0.9,0.7-1,1.9-0.4,2.8c0.7,0.9,1.9,1,2.8,0.4l2.2-1.7V71c0,1.1,0.9,2,2,2h34.8l-8-8c-2.1,1.4-4.6,2.2-7.3,2.2
			c-7.2,0-13.1-5.9-13.1-13.1c0-7.2,5.9-13.1,13.1-13.1c7.2,0,13.1,5.9,13.1,13.1c0,2.6-0.8,5.1-2.1,7.1L71,71.4c0-0.1,0-0.3,0-0.4
			V48.1l2.4,1.9c0.4,0.3,0.8,0.4,1.2,0.4c0.6,0,1.2-0.3,1.6-0.8C77,48.8,76.8,47.5,75.9,46.8z"/>
		<path class="st0" d="M49.8,42.9c-6.1,0-11.1,4.9-11.1,11.1c0,6.1,4.9,11.1,11.1,11.1c6.1,0,11.1-4.9,11.1-11.1
			C60.9,47.9,55.9,42.9,49.8,42.9z M57,55.5c-0.9,0-1.7-0.7-1.7-1.7c0-3.2-2.6-5.7-5.7-5.7c-0.9,0-1.7-0.7-1.7-1.7
			c0-0.9,0.7-1.7,1.7-1.7c5,0,9.1,4.1,9.1,9.1C58.7,54.7,58,55.5,57,55.5z"/>
	</g>
</g>
</svg>
