<?xml version="1.0" encoding="utf-8"?>
<!-- Generator: Adobe Illustrator 25.2.0, SVG Export Plug-In . SVG Version: 6.00 Build 0)  -->
<svg version="1.1" id="Layer_1" xmlns="http://www.w3.org/2000/svg" xmlns:xlink="http://www.w3.org/1999/xlink" x="0px" y="0px"
	 viewBox="0 0 70 70" style="enable-background:new 0 0 70 70;" xml:space="preserve">
<style type="text/css">
	.st0{fill:#E9672B;}
</style>
<g>
	<g>
		<path class="st0" d="M58.9,32.2l-10.3-8v-8.3c0-1-0.8-1.8-1.8-1.8s-1.8,0.8-1.8,1.8v5.5l-9-6.9c-0.7-0.5-1.6-0.5-2.2,0l-23,17.7
			c-0.8,0.6-1,1.8-0.3,2.6c0.6,0.8,1.8,1,2.6,0.3l2-1.6v20.9c0,1,0.8,1.8,1.8,1.8h35.8c1,0,1.8-0.8,1.8-1.8V33.3l2.2,1.7
			c0.3,0.3,0.7,0.4,1.1,0.4c0.6,0,1.1-0.2,1.5-0.7C59.8,33.9,59.7,32.8,58.9,32.2z M34.8,51c-6.7,0-12.1-5.4-12.1-12.1
			c0-6.7,5.4-12.1,12.1-12.1c6.7,0,12.1,5.4,12.1,12.1C46.9,45.6,41.4,51,34.8,51z"/>
		<path class="st0" d="M36,37.3c-1.9-0.7-2.6-1.2-2.6-1.9c0-0.6,0.5-1.2,1.9-1.2c1.6,0,2.6,0.5,3.1,0.7l0.6-2.5
			c-0.7-0.3-1.7-0.7-3.2-0.7v-1.9h-2.1v2.1c-2.3,0.5-3.7,2-3.7,3.9c0,2.1,1.6,3.2,3.9,4c1.6,0.5,2.3,1.1,2.3,1.9
			c0,0.9-0.9,1.4-2.1,1.4c-1.4,0-2.7-0.5-3.6-1l-0.7,2.6c0.8,0.5,2.3,0.9,3.7,0.9v2.1h2.1v-2.2c2.5-0.4,3.9-2.1,3.9-4
			C39.6,39.4,38.6,38.2,36,37.3z"/>
	</g>
</g>
</svg>
